Coordinates
version=1
nRows=11
nColumns=63
inDegrees=yes

Units are S.I. units (second, meters, Newtons, ...)
If the header above contains a line with 'inDegrees', this indicates whether rotational values are in degrees (yes) or radians (no).

endheader
time	pelvis_tilt	pelvis_list	pelvis_rotation	pelvis_tx	pelvis_ty	pelvis_tz	hip_flexion_r	hip_adduction_r	hip_rotation_r	knee_angle_r	knee_angle_r_beta	ankle_angle_r	subtalar_angle_r	mtp_angle_r	hip_flexion_l	hip_adduction_l	hip_rotation_l	knee_angle_l	knee_angle_l_beta	ankle_angle_l	subtalar_angle_l	mtp_angle_l	L5_S1_Flex_Ext	L5_S1_Lat_Bending	L5_S1_axial_rotation	L4_L5_Flex_Ext	L4_L5_Lat_Bending	L4_L5_axial_rotation	L3_L4_Flex_Ext	L3_L4_Lat_Bending	L3_L4_axial_rotation	L2_L3_Flex_Ext	L2_L3_Lat_Bending	L2_L3_axial_rotation	L1_L2_Flex_Ext	L1_L2_Lat_Bending	L1_L2_axial_rotation	L1_T12_Flex_Ext	L1_T12_Lat_Bending	L1_T12_axial_rotation	Abs_r3	Abs_r2	Abs_r1	Abs_t1	Abs_t2	neck_flexion	neck_bending	neck_rotation	arm_flex_r	arm_add_r	arm_rot_r	elbow_flex_r	pro_sup_r	wrist_flex_r	wrist_dev_r	arm_flex_l	arm_add_l	arm_rot_l	elbow_flex_l	pro_sup_l	wrist_flex_l	wrist_dev_l
      2.32203390	      1.33209364	     -4.71329529	    111.04584209	      0.16410957	      1.03340950	      0.49656119	     -2.30768306	      2.03432725	    -25.34547330	     12.78316526	      0.22310832	     31.11173097	      2.83140440	      0.00000000	     -0.92489099	      0.04610087	     16.61838401	      9.80632826	      0.17115272	     31.15140698	     -2.41512099	      0.00000000	     -0.40919430	     -0.32392862	     -2.74081439	     -0.75991473	     -0.43082506	     -2.91211529	     -0.67226531	     -0.78760004	     -2.91211529	     -0.46766816	     -0.78760004	     -2.39821259	     -0.37997783	     -0.66055523	     -2.22691169	     -0.23381362	     -0.50176543	     -2.05561079	     -2.92283395	     -3.66434529	    -15.24358738	      0.00000000	      0.00000000	      9.72037668	      1.39196782	     -7.66920736	     70.81215182	    -17.26427385	    -10.04670227	    131.98499041	     58.39228971	     18.35705849	     27.45869063	      8.26782652	     -9.50919863	    131.62577517	      0.47278300	      2.28712676	     -3.04477068	    -21.60585243
      2.33898305	      1.22037910	     -4.65662537	    110.81165947	      0.16405707	      1.03305270	      0.49583737	     -2.45497260	      1.93285461	    -25.12535517	     12.76582522	      0.22280568	     31.21940074	      2.86235128	      0.00000000	     -1.21340688	      0.15066718	     16.84537624	      9.59435583	      0.16745310	     31.08949713	     -2.88902094	      0.00000000	     -0.39317298	     -0.33486539	     -2.67309801	     -0.73016154	     -0.44537096	     -2.84016663	     -0.64594389	     -0.81419170	     -2.84016663	     -0.44935740	     -0.81419170	     -2.33896076	     -0.36510043	     -0.68285750	     -2.17189213	     -0.22465904	     -0.51870648	     -2.00482351	     -2.80839529	     -3.78806422	    -14.86696918	      0.00000000	      0.00000000	     10.08185904	      1.17357257	     -7.71561578	     70.78143268	    -16.81514769	     -9.60358302	    131.84069441	     61.03438317	     18.23959052	     27.05491381	      8.34552842	     -9.19825141	    135.40907240	      0.43535729	      2.38203857	     -6.67096732	    -21.84888785
      2.35593220	      1.14499574	     -4.62237510	    110.70273196	      0.16390642	      1.03277794	      0.49528370	     -2.55858786	      1.86153812	    -25.01120496	     12.77513429	      0.22296816	     31.33672845	      2.85406810	      0.00000000	     -1.44445750	      0.22460755	     17.20443176	      9.39525627	      0.16397816	     30.97751650	     -3.33438101	      0.00000000	     -0.39354475	     -0.33783035	     -2.64464328	     -0.73085195	     -0.44931437	     -2.80993348	     -0.64655467	     -0.82140072	     -2.80993348	     -0.44978229	     -0.82140072	     -2.31406287	     -0.36544565	     -0.68890366	     -2.14877266	     -0.22487147	     -0.52329922	     -1.98348246	     -2.81105078	     -3.82160452	    -14.70871251	      0.00000000	      0.00000000	     10.33149824	      0.85347205	     -7.80474253	     70.54613780	    -16.29978777	     -9.39508747	    131.79873315	     62.41294903	     18.71742224	     26.62082479	      8.49165650	     -8.93653533	    139.59193077	      0.39260587	      2.87532390	    -10.41588093	    -22.06933992
      2.37288136	      1.08176241	     -4.67566712	    110.63420077	      0.16386136	      1.03261563	      0.49477266	     -2.57607943	      1.78311760	    -24.97437829	     12.75067709	      0.22254130	     31.35317226	      2.85676454	      0.00000000	     -1.56406493	      0.31432384	     17.66059822	      9.22575326	      0.16101977	     30.79866551	     -3.82286223	      0.00000000	     -0.39264979	     -0.34145249	     -2.63435973	     -0.72918993	     -0.45413181	     -2.79900722	     -0.64508435	     -0.83020759	     -2.79900722	     -0.44875945	     -0.83020759	     -2.30506477	     -0.36461460	     -0.69628992	     -2.14041728	     -0.22436009	     -0.52890991	     -1.97576980	     -2.80465821	     -3.86257888	    -14.65151853	      0.00000000	      0.00000000	     10.26990253	      0.75266470	     -7.81010208	     70.07862723	    -15.72072854	     -9.42321339	    132.01883197	     63.35504302	     19.47586025	     26.10606641	      8.64496170	     -8.74302199	    144.48050736	      0.35159120	      3.73581812	    -14.87782439	    -21.97117029
      2.38983051	      1.10418915	     -4.74386808	    110.56991322	      0.16413744	      1.03266539	      0.49433748	     -2.53390185	      1.80052734	    -24.95570854	     12.70893281	      0.22181272	     31.29424781	      2.90703727	      0.00000000	     -1.56284001	      0.29688063	     17.78032317	      9.17910733	      0.16020565	     30.72594957	     -3.90604343	      0.00000000	     -0.39224943	     -0.33965170	     -2.63865209	     -0.72844642	     -0.45173676	     -2.80356785	     -0.64442659	     -0.82582914	     -2.80356785	     -0.44830188	     -0.82582914	     -2.30882058	     -0.36424282	     -0.69261774	     -2.14390482	     -0.22413133	     -0.52612048	     -1.97898907	     -2.80179848	     -3.84220794	    -14.67539133	      0.00000000	      0.00000000	      9.85469810	      0.99780766	     -7.64071822	     69.37615636	    -14.91099612	     -9.67686114	    132.56215241	     63.80704461	     19.96033149	     25.92470145	      8.81804673	     -8.70228545	    146.75163869	      0.32414247	      5.31577223	    -16.15314350	    -22.30892476
      2.40677966	      0.93010324	     -4.83476959	    110.47364952	      0.16435790	      1.03297461	      0.49428404	     -2.49464746	      1.59204998	    -24.91289273	     12.71911017	      0.22199035	     31.30600773	      2.94106045	      0.00000000	     -1.56654565	      0.51233573	     18.06057021	      9.18680505	      0.16034000	     30.46009717	     -4.15167875	      0.00000000	     -0.41103310	     -0.36186482	     -2.59916500	     -0.76332956	     -0.48128021	     -2.76161281	     -0.67528627	     -0.87983812	     -2.76161281	     -0.46976973	     -0.87983812	     -2.27426937	     -0.38168533	     -0.73791474	     -2.11182156	     -0.23486431	     -0.56052860	     -1.94937375	     -2.93596830	     -4.09348720	    -14.45577596	      0.00000000	      0.00000000	      9.54869041	      1.45036013	     -7.96358436	     68.70591109	    -14.81380231	    -10.09353657	    133.42493939	     65.34175738	     20.87784069	     25.25410853	      9.07363706	     -8.61256956	    151.38978313	      0.30608048	      8.12380520	    -21.56095096	    -20.71293136
      2.42372881	      0.86499536	     -4.94651867	    110.30728010	      0.16484564	      1.03328229	      0.49418529	     -2.39862163	      1.49758181	    -24.76772059	     12.69787805	      0.22161978	     31.30587655	      2.99333369	      0.00000000	     -1.46504960	      0.63509008	     18.19132845	      9.28037628	      0.16197312	     30.25828594	     -4.50743327	      0.00000000	     -0.41295859	     -0.37765344	     -2.55193440	     -0.76690540	     -0.50227907	     -2.71143030	     -0.67844967	     -0.91822657	     -2.71143030	     -0.47197037	     -0.91822657	     -2.23294260	     -0.38347335	     -0.77011089	     -2.07344670	     -0.23596454	     -0.58498518	     -1.91395080	     -2.94972191	     -4.27209122	    -14.19309355	      0.00000000	      0.00000000	      9.00487808	      2.13516677	     -8.18445113	     67.82783027	    -14.66376178	    -10.57180829	    134.50936447	     66.53446878	     20.98776749	     24.93466064	      9.19702743	     -8.62736239	    153.49681784	      0.29863110	      9.99625229	    -23.36312539	    -19.80054822
      2.44067797	      0.79049128	     -5.04557864	    110.21175305	      0.16527663	      1.03359448	      0.49442105	     -2.30869296	      1.34777914	    -25.14920897	     12.72351486	      0.22206723	     31.47021086	      3.65724448	      0.00000000	     -1.28784480	      0.75096667	     18.06683007	      9.48749069	      0.16558795	     30.18754318	     -4.42416486	      0.00000000	     -0.41782955	     -0.39614428	     -2.49624356	     -0.77595125	     -0.52687189	     -2.65225878	     -0.68645216	     -0.96318520	     -2.65225878	     -0.47753739	     -0.96318520	     -2.18421311	     -0.38799652	     -0.80781742	     -2.02819789	     -0.23874780	     -0.61362749	     -1.87218267	     -2.98451468	     -4.48126332	    -13.88335779	      0.00000000	      0.00000000	      8.57998206	      2.86268911	     -8.65339345	     66.97440711	    -14.77441090	    -11.14806882	    135.81965138	     67.33296584	     20.39420317	     25.37556990	      9.33368544	     -8.67015540	    155.07098383	      0.29748646	     12.76820159	    -25.11389929	    -18.37976440
      2.45762712	      0.70299250	     -5.12776311	    110.03924243	      0.16593217	      1.03381351	      0.49472021	     -2.20573611	      1.23700046	    -24.92002841	     12.74940993	      0.22251918	     31.57926826	      3.64051196	      0.00000000	     -1.14340583	      0.89239174	     18.17128425	      9.65991948	      0.16859740	     30.04123338	     -4.83584072	      0.00000000	     -0.41892952	     -0.41870302	     -2.42813502	     -0.77799401	     -0.55687502	     -2.57989346	     -0.68825931	     -1.01803453	     -2.57989346	     -0.47879455	     -1.01803453	     -2.12461814	     -0.38901795	     -0.85381920	     -1.97285970	     -0.23937633	     -0.64857098	     -1.82110126	     -2.99237166	     -4.73645234	    -13.50455854	      0.00000000	      0.00000000	      8.22065457	      3.56429579	     -9.22524258	     66.19713845	    -14.99529517	    -11.82611304	    137.07020281	     67.75252143	     19.93566176	     26.24492739	      9.34205369	     -8.78918679	    155.98060001	      0.30416439	     14.29336565	    -25.93733273	    -17.34971273
      2.47457627	      0.66221611	     -5.13779561	    109.95037716	      0.16641219	      1.03400815	      0.49521281	     -2.14201973	      1.18826608	    -24.87485170	     12.80261381	      0.22344776	     31.73049712	      3.68257735	      0.00000000	     -0.99049002	      0.96121475	     18.17411308	      9.92433413	      0.17321231	     30.04487400	     -4.97243809	      0.00000000	     -0.42401600	     -0.43461115	     -2.39970132	     -0.78744011	     -0.57803282	     -2.54968266	     -0.69661588	     -1.05671354	     -2.54968266	     -0.48460788	     -1.05671354	     -2.09973866	     -0.39374125	     -0.88625905	     -1.94975733	     -0.24228274	     -0.67321267	     -1.79977599	     -3.02870386	     -4.91640821	    -13.34641885	      0.00000000	      0.00000000	      7.90509071	      4.26647586	     -9.57214492	     65.48132183	    -15.27938186	    -12.46034743	    137.98271313	     67.85139567	     19.85071885	     26.62363588	      9.14841675	     -8.93889431	    155.63109785	      0.32433232	     14.16928753	    -25.82221885	    -16.88174748
      2.49152542	      0.57255445	     -5.22377217	    109.70070761	      0.16718284	      1.03409152	      0.49544487	     -2.01844633	      1.05396769	    -24.72828059	     12.86068218	      0.22446125	     31.94376737	      3.85075151	      0.00000000	     -0.83594483	      1.09618651	     18.04241514	     10.09432049	      0.17617913	     29.94523373	     -5.24937843	      0.00000000	     -0.41307667	     -0.46428260	     -2.33122913	     -0.76712468	     -0.61749585	     -2.47693095	     -0.67864366	     -1.12885671	     -2.47693095	     -0.47210532	     -1.12885671	     -2.03982549	     -0.38358299	     -0.94676507	     -1.89412367	     -0.23603201	     -0.71917374	     -1.74842185	     -2.95056533	     -5.25205760	    -12.96559704	      0.00000000	      0.00000000	      7.74617747	      4.89117015	    -10.33432342	     64.78018018	    -15.72979383	    -13.18827329	    138.93131627	     67.92113765	     19.36547705	     27.36640804	      8.82503519	     -9.15864326	    154.46795537	      0.35512691	     13.29602730	    -25.06041120	    -16.55635020
